<svg width="60" height="60" viewBox="0 0 60 60" fill="none" xmlns="http://www.w3.org/2000/svg">
<path d="M12.4999 27.5C10.5114 27.5022 8.60501 28.293 7.19895 29.6991C5.7929 31.1051 5.00203 33.0115 4.99988 35H9.99988C9.99988 34.5056 10.1465 34.0222 10.4212 33.6111C10.6959 33.2 11.0864 32.8795 11.5432 32.6903C12 32.5011 12.5027 32.4516 12.9876 32.548C13.4726 32.6445 13.918 32.8826 14.2676 33.2322C14.6173 33.5819 14.8554 34.0273 14.9518 34.5123C15.0483 34.9972 14.9988 35.4999 14.8096 35.9567C14.6204 36.4135 14.2999 36.804 13.8888 37.0787C13.4777 37.3534 12.9943 37.5 12.4999 37.5C11.8368 37.5 11.201 37.7634 10.7321 38.2322C10.2633 38.7011 9.99988 39.337 9.99988 40C9.99988 40.663 10.2633 41.2989 10.7321 41.7678C11.201 42.2366 11.8368 42.5 12.4999 42.5C12.9943 42.5 13.4777 42.6466 13.8888 42.9213C14.2999 43.196 14.6204 43.5865 14.8096 44.0433C14.9988 44.5001 15.0483 45.0028 14.9518 45.4877C14.8554 45.9727 14.6173 46.4181 14.2676 46.7678C13.918 47.1174 13.4726 47.3555 12.9876 47.452C12.5027 47.5484 12 47.4989 11.5432 47.3097C11.0864 47.1205 10.6959 46.8001 10.4212 46.3889C10.1465 45.9778 9.99988 45.4945 9.99988 45H4.99988C4.99906 46.2162 5.29402 47.4144 5.85936 48.4913C6.42469 49.5681 7.24342 50.4913 8.24498 51.1813C9.24655 51.8713 10.4009 52.3074 11.6085 52.4519C12.8161 52.5965 14.0407 52.4452 15.1769 52.0111C16.313 51.577 17.3265 50.8731 18.13 49.9601C18.9335 49.0471 19.5029 47.9524 19.7892 46.7703C20.0754 45.5882 20.0699 44.3543 19.7731 43.1748C19.4763 41.9954 18.8971 40.9058 18.0855 40C19.0521 38.9217 19.6857 37.5865 19.9098 36.1558C20.1338 34.7251 19.9386 33.2601 19.3478 31.938C18.757 30.6159 17.7959 29.4931 16.5806 28.7056C15.3654 27.918 13.948 27.4993 12.4999 27.5Z" fill="#396B2B"/>
<path d="M29.9998 32.5C30.6629 32.5 31.2987 32.7634 31.7676 33.2322C32.2364 33.7011 32.4998 34.337 32.4998 35H37.4998C37.4998 33.0109 36.7096 31.1032 35.3031 29.6967C33.8966 28.2902 31.9889 27.5 29.9998 27.5C28.0107 27.5 26.103 28.2902 24.6965 29.6967C23.29 31.1032 22.4998 33.0109 22.4998 35V45C22.4936 46.6004 22.9975 48.1612 23.9384 49.4559C24.8793 50.7505 26.2083 51.7117 27.7324 52.1999C29.2566 52.688 30.8967 52.6779 32.4147 52.1708C33.9327 51.6637 35.2496 50.6862 36.1744 49.3799C37.0991 48.0737 37.5836 46.5068 37.5575 44.9065C37.5314 43.3063 36.9961 41.756 36.0292 40.4806C35.0623 39.2053 33.7142 38.2712 32.1805 37.8139C30.6468 37.3566 29.0073 37.3999 27.4998 37.9375V35C27.4998 34.337 27.7632 33.7011 28.232 33.2322C28.7009 32.7634 29.3368 32.5 29.9998 32.5ZM29.9998 42.5C30.4943 42.5 30.9776 42.6466 31.3887 42.9213C31.7999 43.196 32.1203 43.5865 32.3095 44.0433C32.4987 44.5001 32.5482 45.0028 32.4518 45.4877C32.3553 45.9727 32.1172 46.4181 31.7676 46.7678C31.4179 47.1174 30.9725 47.3555 30.4875 47.452C30.0026 47.5484 29.4999 47.4989 29.0431 47.3097C28.5863 47.1205 28.1958 46.8 27.9211 46.3889C27.6464 45.9778 27.4998 45.4944 27.4998 45C27.4998 44.337 27.7632 43.7011 28.232 43.2322C28.7009 42.7634 29.3368 42.5 29.9998 42.5Z" fill="#396B2B"/>
<path d="M55.0001 45V35C55.0001 33.0109 54.2099 31.1032 52.8034 29.6967C51.3969 28.2902 49.4892 27.5 47.5001 27.5C45.511 27.5 43.6033 28.2902 42.1968 29.6967C40.7903 31.1032 40.0001 33.0109 40.0001 35V45C40.0001 46.9891 40.7903 48.8968 42.1968 50.3033C43.6033 51.7098 45.511 52.5 47.5001 52.5C49.4892 52.5 51.3969 51.7098 52.8034 50.3033C54.2099 48.8968 55.0001 46.9891 55.0001 45ZM50.0001 45C50.0001 45.663 49.7367 46.2989 49.2679 46.7678C48.7991 47.2366 48.1632 47.5 47.5001 47.5C46.8371 47.5 46.2012 47.2366 45.7324 46.7678C45.2635 46.2989 45.0001 45.663 45.0001 45V35C45.0001 34.337 45.2635 33.7011 45.7324 33.2322C46.2012 32.7634 46.8371 32.5 47.5001 32.5C48.1632 32.5 48.7991 32.7634 49.2679 33.2322C49.7367 33.7011 50.0001 34.337 50.0001 35V45Z" fill="#396B2B"/>
<path d="M57.4999 0H49.9999V5H54.9999V10H59.9999V2.5C59.9999 1.83696 59.7365 1.20107 59.2676 0.732233C58.7988 0.263392 58.1629 0 57.4999 0V0Z" fill="#396B2B"/>
<path d="M5 5H10V0H2.5C1.83696 0 1.20107 0.263392 0.732233 0.732233C0.263392 1.20107 0 1.83696 0 2.5L0 10H5V5Z" fill="#396B2B"/>
<path d="M54.9999 55H49.9999V60H57.4999C58.1629 60 58.7988 59.7366 59.2676 59.2678C59.7365 58.7989 59.9999 58.163 59.9999 57.5V50H54.9999V55Z" fill="#396B2B"/>
<path d="M5 50H0V57.5C0 58.163 0.263392 58.7989 0.732233 59.2678C1.20107 59.7366 1.83696 60 2.5 60H10V55H5V50Z" fill="#396B2B"/>
<path d="M45.5038 10.2867L31.1182 3.09357C30.771 2.91997 30.3882 2.82959 30.0001 2.82959C29.6119 2.82959 29.2291 2.91997 28.882 3.09357L14.4963 10.2867L30.0001 18.8998L45.5038 10.2867Z" fill="#396B2B"/>
<path d="M28.7499 25.0818V21.0656L12.613 12.1006C12.6055 12.1225 12.5974 12.145 12.5911 12.1675C12.5718 12.2381 12.558 12.3106 12.5449 12.3831C12.5386 12.42 12.5286 12.4556 12.5236 12.4931C12.5082 12.6047 12.5002 12.7173 12.4999 12.83V25C14.2871 25.0016 16.0413 25.4819 17.5801 26.391C19.1188 27.3001 20.386 28.6047 21.2499 30.1693C22.0122 28.7916 23.0886 27.6129 24.3917 26.729C25.6948 25.8451 27.1879 25.2808 28.7499 25.0818Z" fill="#396B2B"/>
<path d="M47.4999 25V12.83C47.4995 12.7173 47.4916 12.6047 47.4761 12.4931C47.4711 12.4556 47.4611 12.42 47.4549 12.3831C47.4418 12.3106 47.428 12.2381 47.4086 12.1675C47.4024 12.145 47.3943 12.1225 47.3868 12.1006L31.2499 21.0656V25.0818C32.8119 25.2808 34.305 25.8451 35.6081 26.729C36.9111 27.6129 37.9875 28.7916 38.7499 30.1693C39.6138 28.6047 40.8809 27.3001 42.4197 26.391C43.9585 25.4819 45.7126 25.0016 47.4999 25Z" fill="#396B2B"/>
</svg>
