<svg width="156" height="25" viewBox="0 0 156 25" fill="none" xmlns="http://www.w3.org/2000/svg">
<path d="M40.584 5.256H42.096V16.596H47.928V18H40.584V5.256ZM56.676 16.002C56.676 16.386 56.688 16.746 56.712 17.082C56.736 17.418 56.748 17.724 56.748 18H55.416C55.416 17.772 55.41 17.544 55.398 17.316C55.386 17.088 55.38 16.854 55.38 16.614H55.344C55.248 16.818 55.11 17.016 54.93 17.208C54.762 17.4 54.558 17.574 54.318 17.73C54.078 17.874 53.808 17.988 53.508 18.072C53.208 18.168 52.884 18.216 52.536 18.216C51.984 18.216 51.504 18.132 51.096 17.964C50.7 17.796 50.37 17.562 50.106 17.262C49.842 16.962 49.644 16.602 49.512 16.182C49.392 15.75 49.332 15.282 49.332 14.778V9.576H50.736V14.634C50.736 15.342 50.892 15.9 51.204 16.308C51.516 16.716 52.002 16.92 52.662 16.92C53.118 16.92 53.508 16.842 53.832 16.686C54.168 16.53 54.438 16.308 54.642 16.02C54.858 15.732 55.014 15.39 55.11 14.994C55.218 14.598 55.272 14.16 55.272 13.68V9.576H56.676V16.002ZM59.334 11.574C59.334 11.19 59.322 10.83 59.298 10.494C59.274 10.158 59.262 9.852 59.262 9.576H60.594C60.594 9.804 60.6 10.032 60.612 10.26C60.624 10.488 60.63 10.722 60.63 10.962H60.666C60.762 10.758 60.894 10.56 61.062 10.368C61.242 10.176 61.452 10.008 61.692 9.864C61.932 9.708 62.202 9.588 62.502 9.504C62.802 9.408 63.126 9.36 63.474 9.36C63.93 9.36 64.308 9.42 64.608 9.54C64.92 9.648 65.178 9.786 65.382 9.954C65.586 10.11 65.742 10.284 65.85 10.476C65.97 10.656 66.066 10.818 66.138 10.962C66.45 10.458 66.81 10.068 67.218 9.792C67.626 9.504 68.154 9.36 68.802 9.36C69.402 9.36 69.906 9.444 70.314 9.612C70.722 9.768 71.052 10.002 71.304 10.314C71.556 10.614 71.736 10.986 71.844 11.43C71.952 11.862 72.006 12.348 72.006 12.888V18H70.602V12.96C70.602 12.672 70.572 12.39 70.512 12.114C70.452 11.838 70.344 11.592 70.188 11.376C70.032 11.16 69.822 10.986 69.558 10.854C69.294 10.722 68.958 10.656 68.55 10.656C68.25 10.656 67.968 10.716 67.704 10.836C67.44 10.956 67.206 11.124 67.002 11.34C66.81 11.556 66.654 11.82 66.534 12.132C66.426 12.432 66.372 12.768 66.372 13.14V18H64.968V13.23C64.968 12.294 64.842 11.634 64.59 11.25C64.338 10.854 63.924 10.656 63.348 10.656C62.892 10.656 62.496 10.734 62.16 10.89C61.836 11.046 61.566 11.268 61.35 11.556C61.146 11.844 60.99 12.186 60.882 12.582C60.786 12.978 60.738 13.416 60.738 13.896V18H59.334V11.574ZM74.5901 4.392H75.9941V10.8H76.0301C76.4141 10.344 76.8581 9.99 77.3621 9.738C77.8781 9.486 78.4421 9.36 79.0541 9.36C79.7141 9.36 80.3141 9.474 80.8541 9.702C81.4061 9.918 81.8741 10.224 82.2581 10.62C82.6421 11.016 82.9421 11.484 83.1581 12.024C83.3741 12.564 83.4821 13.152 83.4821 13.788C83.4821 14.424 83.3741 15.012 83.1581 15.552C82.9421 16.092 82.6421 16.56 82.2581 16.956C81.8861 17.352 81.4421 17.664 80.9261 17.892C80.4101 18.108 79.8581 18.216 79.2701 18.216C78.5141 18.216 77.8481 18.054 77.2721 17.73C76.7081 17.394 76.2941 16.986 76.0301 16.506H75.9941V18H74.5901V4.392ZM75.9941 13.788C75.9941 14.232 76.0601 14.646 76.1921 15.03C76.3361 15.402 76.5401 15.732 76.8041 16.02C77.0681 16.296 77.3801 16.518 77.7401 16.686C78.1121 16.842 78.5261 16.92 78.9821 16.92C79.4381 16.92 79.8461 16.842 80.2061 16.686C80.5781 16.518 80.8961 16.296 81.1601 16.02C81.4241 15.732 81.6221 15.402 81.7541 15.03C81.8981 14.646 81.9701 14.232 81.9701 13.788C81.9701 13.344 81.8981 12.936 81.7541 12.564C81.6221 12.18 81.4241 11.85 81.1601 11.574C80.8961 11.286 80.5781 11.064 80.2061 10.908C79.8461 10.74 79.4381 10.656 78.9821 10.656C78.5261 10.656 78.1121 10.74 77.7401 10.908C77.3801 11.064 77.0681 11.286 76.8041 11.574C76.5401 11.85 76.3361 12.18 76.1921 12.564C76.0601 12.936 75.9941 13.344 75.9941 13.788ZM93.01 16.002C93.01 16.386 93.022 16.746 93.046 17.082C93.07 17.418 93.082 17.724 93.082 18H91.75C91.75 17.772 91.744 17.544 91.732 17.316C91.72 17.088 91.714 16.854 91.714 16.614H91.678C91.582 16.818 91.444 17.016 91.264 17.208C91.096 17.4 90.892 17.574 90.652 17.73C90.412 17.874 90.142 17.988 89.842 18.072C89.542 18.168 89.218 18.216 88.87 18.216C88.318 18.216 87.838 18.132 87.43 17.964C87.034 17.796 86.704 17.562 86.44 17.262C86.176 16.962 85.978 16.602 85.846 16.182C85.726 15.75 85.666 15.282 85.666 14.778V9.576H87.07V14.634C87.07 15.342 87.226 15.9 87.538 16.308C87.85 16.716 88.336 16.92 88.996 16.92C89.452 16.92 89.842 16.842 90.166 16.686C90.502 16.53 90.772 16.308 90.976 16.02C91.192 15.732 91.348 15.39 91.444 14.994C91.552 14.598 91.606 14.16 91.606 13.68V9.576H93.01V16.002ZM95.6679 11.574C95.6679 11.19 95.6559 10.83 95.6319 10.494C95.6079 10.158 95.5959 9.852 95.5959 9.576H96.9279C96.9279 9.804 96.9339 10.032 96.9459 10.26C96.9579 10.488 96.9639 10.722 96.9639 10.962H96.9999C97.0959 10.758 97.2279 10.56 97.3959 10.368C97.5759 10.176 97.7859 10.008 98.0259 9.864C98.2659 9.708 98.5359 9.588 98.8359 9.504C99.1359 9.408 99.4599 9.36 99.8079 9.36C100.36 9.36 100.834 9.444 101.23 9.612C101.638 9.78 101.974 10.014 102.238 10.314C102.502 10.614 102.694 10.98 102.814 11.412C102.946 11.832 103.012 12.294 103.012 12.798V18H101.608V12.942C101.608 12.234 101.452 11.676 101.14 11.268C100.828 10.86 100.342 10.656 99.6819 10.656C99.2259 10.656 98.8299 10.734 98.4939 10.89C98.1699 11.046 97.8999 11.268 97.6839 11.556C97.4799 11.844 97.3239 12.186 97.2159 12.582C97.1199 12.978 97.0719 13.416 97.0719 13.896V18H95.6679V11.574ZM114.076 17.622C114.076 19.158 113.68 20.322 112.888 21.114C112.108 21.918 110.974 22.32 109.486 22.32C108.658 22.32 107.908 22.2 107.236 21.96C106.576 21.72 105.946 21.306 105.346 20.718L106.354 19.566C106.798 20.046 107.266 20.406 107.758 20.646C108.262 20.898 108.838 21.024 109.486 21.024C110.11 21.024 110.626 20.928 111.034 20.736C111.454 20.556 111.784 20.304 112.024 19.98C112.264 19.668 112.432 19.308 112.528 18.9C112.624 18.492 112.672 18.066 112.672 17.622V16.542H112.636C112.3 17.082 111.862 17.478 111.322 17.73C110.782 17.982 110.23 18.108 109.666 18.108C109.006 18.108 108.4 18 107.848 17.784C107.296 17.568 106.822 17.268 106.426 16.884C106.03 16.5 105.724 16.044 105.508 15.516C105.292 14.988 105.184 14.412 105.184 13.788C105.184 13.104 105.292 12.486 105.508 11.934C105.724 11.382 106.024 10.92 106.408 10.548C106.804 10.164 107.278 9.87 107.83 9.666C108.382 9.462 108.994 9.36 109.666 9.36C109.954 9.36 110.242 9.396 110.53 9.468C110.818 9.528 111.094 9.63 111.358 9.774C111.634 9.906 111.88 10.08 112.096 10.296C112.312 10.5 112.492 10.74 112.636 11.016H112.672V9.576H114.076V17.622ZM106.696 13.788C106.696 14.22 106.774 14.622 106.93 14.994C107.086 15.354 107.296 15.672 107.56 15.948C107.836 16.212 108.154 16.422 108.514 16.578C108.874 16.734 109.258 16.812 109.666 16.812C110.146 16.812 110.572 16.728 110.944 16.56C111.316 16.392 111.628 16.17 111.88 15.894C112.144 15.606 112.342 15.282 112.474 14.922C112.606 14.55 112.672 14.16 112.672 13.752C112.672 13.296 112.6 12.882 112.456 12.51C112.312 12.126 112.108 11.796 111.844 11.52C111.58 11.244 111.262 11.034 110.89 10.89C110.518 10.734 110.11 10.656 109.666 10.656C109.222 10.656 108.814 10.74 108.442 10.908C108.082 11.064 107.77 11.286 107.506 11.574C107.254 11.85 107.056 12.18 106.912 12.564C106.768 12.936 106.696 13.344 106.696 13.788ZM116.692 5.256H121.588C122.008 5.256 122.452 5.304 122.92 5.4C123.388 5.496 123.85 5.652 124.306 5.868C124.774 6.072 125.218 6.342 125.638 6.678C126.07 7.014 126.448 7.422 126.772 7.902C127.096 8.37 127.354 8.916 127.546 9.54C127.738 10.152 127.834 10.848 127.834 11.628C127.834 12.408 127.738 13.11 127.546 13.734C127.354 14.346 127.096 14.892 126.772 15.372C126.448 15.84 126.07 16.242 125.638 16.578C125.218 16.914 124.774 17.19 124.306 17.406C123.85 17.61 123.388 17.76 122.92 17.856C122.452 17.952 122.008 18 121.588 18H116.692V5.256ZM118.204 16.596H121.084C121.816 16.596 122.494 16.5 123.118 16.308C123.742 16.116 124.282 15.822 124.738 15.426C125.194 15.018 125.554 14.502 125.818 13.878C126.082 13.254 126.214 12.504 126.214 11.628C126.214 10.752 126.082 10.002 125.818 9.378C125.554 8.754 125.194 8.244 124.738 7.848C124.282 7.44 123.742 7.14 123.118 6.948C122.494 6.756 121.816 6.66 121.084 6.66H118.204V16.596ZM137.54 16.47C137.036 17.118 136.484 17.574 135.884 17.838C135.284 18.09 134.588 18.216 133.796 18.216C133.136 18.216 132.542 18.102 132.014 17.874C131.486 17.634 131.036 17.316 130.664 16.92C130.304 16.524 130.022 16.056 129.818 15.516C129.626 14.976 129.53 14.4 129.53 13.788C129.53 13.14 129.638 12.546 129.854 12.006C130.07 11.454 130.37 10.986 130.754 10.602C131.138 10.206 131.594 9.9 132.122 9.684C132.65 9.468 133.226 9.36 133.85 9.36C134.438 9.36 134.978 9.462 135.47 9.666C135.962 9.858 136.382 10.146 136.73 10.53C137.09 10.902 137.366 11.364 137.558 11.916C137.75 12.456 137.846 13.074 137.846 13.77V14.22H131.042C131.066 14.58 131.15 14.928 131.294 15.264C131.45 15.588 131.648 15.876 131.888 16.128C132.128 16.368 132.41 16.56 132.734 16.704C133.058 16.848 133.412 16.92 133.796 16.92C134.408 16.92 134.924 16.812 135.344 16.596C135.764 16.38 136.142 16.062 136.478 15.642L137.54 16.47ZM136.334 13.032C136.31 12.312 136.076 11.736 135.632 11.304C135.188 10.872 134.576 10.656 133.796 10.656C133.016 10.656 132.386 10.872 131.906 11.304C131.426 11.736 131.138 12.312 131.042 13.032H136.334ZM140.198 15.786C140.474 16.134 140.774 16.41 141.098 16.614C141.434 16.818 141.854 16.92 142.358 16.92C142.574 16.92 142.79 16.896 143.006 16.848C143.234 16.8 143.438 16.722 143.618 16.614C143.798 16.506 143.942 16.374 144.05 16.218C144.158 16.05 144.212 15.852 144.212 15.624C144.212 15.396 144.158 15.21 144.05 15.066C143.954 14.922 143.822 14.802 143.654 14.706C143.486 14.598 143.294 14.514 143.078 14.454C142.862 14.394 142.64 14.34 142.412 14.292C142.016 14.208 141.638 14.112 141.278 14.004C140.918 13.896 140.6 13.758 140.324 13.59C140.06 13.41 139.844 13.182 139.676 12.906C139.52 12.63 139.442 12.276 139.442 11.844C139.442 11.436 139.532 11.076 139.712 10.764C139.892 10.452 140.132 10.194 140.432 9.99C140.732 9.786 141.068 9.63 141.44 9.522C141.812 9.414 142.196 9.36 142.592 9.36C143.192 9.36 143.744 9.48 144.248 9.72C144.764 9.96 145.166 10.35 145.454 10.89L144.284 11.664C144.104 11.364 143.864 11.124 143.564 10.944C143.276 10.752 142.922 10.656 142.502 10.656C142.31 10.656 142.112 10.68 141.908 10.728C141.716 10.776 141.542 10.848 141.386 10.944C141.23 11.04 141.098 11.166 140.99 11.322C140.894 11.466 140.846 11.634 140.846 11.826C140.846 12.006 140.9 12.162 141.008 12.294C141.128 12.414 141.284 12.522 141.476 12.618C141.68 12.714 141.908 12.798 142.16 12.87C142.424 12.942 142.694 13.002 142.97 13.05C143.342 13.122 143.696 13.218 144.032 13.338C144.368 13.446 144.662 13.596 144.914 13.788C145.166 13.98 145.364 14.22 145.508 14.508C145.652 14.796 145.724 15.15 145.724 15.57C145.724 16.05 145.628 16.458 145.436 16.794C145.244 17.13 144.986 17.406 144.662 17.622C144.35 17.826 143.99 17.976 143.582 18.072C143.186 18.168 142.778 18.216 142.358 18.216C141.638 18.216 141.014 18.108 140.486 17.892C139.97 17.664 139.502 17.25 139.082 16.65L140.198 15.786ZM147.574 10.656C148.006 10.212 148.516 9.888 149.104 9.684C149.704 9.468 150.31 9.36 150.922 9.36C152.17 9.36 153.07 9.654 153.622 10.242C154.174 10.83 154.45 11.724 154.45 12.924V16.542C154.45 16.782 154.462 17.034 154.486 17.298C154.51 17.55 154.54 17.784 154.576 18H153.226C153.178 17.808 153.148 17.598 153.136 17.37C153.136 17.13 153.136 16.92 153.136 16.74H153.1C152.824 17.172 152.452 17.526 151.984 17.802C151.528 18.078 150.976 18.216 150.328 18.216C149.896 18.216 149.488 18.162 149.104 18.054C148.732 17.946 148.402 17.79 148.114 17.586C147.838 17.37 147.616 17.106 147.448 16.794C147.28 16.482 147.196 16.122 147.196 15.714C147.196 15.018 147.376 14.472 147.736 14.076C148.096 13.68 148.54 13.386 149.068 13.194C149.608 13.002 150.184 12.882 150.796 12.834C151.42 12.786 151.99 12.762 152.506 12.762H153.046V12.51C153.046 11.898 152.86 11.436 152.488 11.124C152.128 10.812 151.618 10.656 150.958 10.656C150.502 10.656 150.052 10.734 149.608 10.89C149.176 11.034 148.792 11.262 148.456 11.574L147.574 10.656ZM151.642 13.95C150.742 13.95 150.028 14.076 149.5 14.328C148.972 14.58 148.708 14.994 148.708 15.57C148.708 16.098 148.882 16.476 149.23 16.704C149.59 16.92 150.034 17.028 150.562 17.028C150.97 17.028 151.324 16.962 151.624 16.83C151.936 16.686 152.194 16.5 152.398 16.272C152.602 16.044 152.758 15.78 152.866 15.48C152.974 15.168 153.034 14.838 153.046 14.49V13.95H151.642Z" fill="#29291E"/>
<path fill-rule="evenodd" clip-rule="evenodd" d="M14.0569 23.9202C13.9616 23.9367 13.866 23.9521 13.7699 23.9664C14.3182 17.2525 15.828 10.58 19.2781 6.56232C19.2781 6.56232 14.3515 10.2004 12.974 21.9986C12.8906 20.6971 12.774 19.4731 12.6305 18.3229C13.3488 11.875 14.881 5.76596 17.8521 1.876C17.8521 1.876 13.968 5.10815 12.133 15.129C10.2789 5.31471 6.46284 2.13927 6.46284 2.13927C9.39197 5.97417 10.9225 11.9658 11.6535 18.3127C11.5023 19.5707 11.3832 20.9156 11.3042 22.3522C9.94351 10.4722 4.98819 6.80389 4.98819 6.80389C8.40281 10.7802 9.91683 17.357 10.4791 24.0007C10.3947 23.99 10.3106 23.9784 10.2267 23.9659C8.69232 14.6585 4.05497 11.7537 4.05497 11.7537C6.95042 14.6097 8.47928 19.0524 9.2201 23.7716C3.93311 22.5125 0 17.7416 0 12.0483C0 5.39419 5.37258 0 12 0C18.6274 0 24 5.39419 24 12.0483C24 17.6373 20.2097 22.3374 15.0691 23.6989C15.7986 18.9093 17.3294 14.3856 20.2636 11.4914C20.2636 11.4914 15.5544 14.4412 14.0569 23.9202Z" fill="#BA5300"/>
</svg>
