<svg width="60" height="60" viewBox="0 0 60 60" fill="none" xmlns="http://www.w3.org/2000/svg">
<g clip-path="url(#clip0)">
<path d="M9.17808 7.08081C9.17647 7.08081 9.17465 7.08081 9.17303 7.08081C8.60556 7.08081 8.07182 7.30202 7.66879 7.70404C7.26131 8.11051 7.03687 8.65172 7.03687 9.22789V41.4229C7.03687 42.6036 8.00111 43.5664 9.18657 43.5694C14.1842 43.5813 22.5571 44.623 28.3333 50.6676V16.9746C28.3333 16.5744 28.2311 16.1984 28.0382 15.8873C23.2973 8.25253 14.187 7.09253 9.17808 7.08081Z" fill="#396B2B"/>
<path d="M52.9631 41.4229V9.22764C52.9631 8.65148 52.7387 8.11027 52.3312 7.7038C51.9282 7.30178 51.394 7.08057 50.8271 7.08057C50.8253 7.08057 50.8235 7.08057 50.8219 7.08057C45.8132 7.09249 36.7028 8.25249 31.9618 15.8873C31.7689 16.1984 31.6669 16.5743 31.6669 16.9745V50.6674C37.4431 44.6227 45.816 43.5811 50.8136 43.5692C51.9989 43.5661 52.9631 42.6033 52.9631 41.4229Z" fill="#396B2B"/>
<path d="M57.8533 14.5054H56.2966V41.4228C56.2966 44.4372 53.8406 46.8952 50.8216 46.9026C46.5826 46.9127 39.5931 47.7416 34.6429 52.4267C43.2042 50.3305 52.2293 51.6932 57.3727 52.8653C58.0149 53.0115 58.6786 52.8604 59.1931 52.4503C59.7059 52.0412 60 51.4297 60 50.7733V16.652C60.0002 15.4684 59.037 14.5054 57.8533 14.5054Z" fill="#396B2B"/>
<path d="M3.70345 41.4228V14.5054H2.14667C0.963236 14.5054 0 15.4684 0 16.652V50.7728C0 51.4293 0.294142 52.0406 0.806871 52.4497C1.32101 52.8596 1.98405 53.0113 2.62728 52.8647C7.77073 51.6924 16.796 50.3299 25.3569 52.4261C20.4069 47.7412 13.4174 46.9125 9.17841 46.9024C6.15962 46.8952 3.70345 44.4372 3.70345 41.4228Z" fill="#396B2B"/>
</g>
<defs>
<clipPath id="clip0">
<rect width="60" height="60" fill="white"/>
</clipPath>
</defs>
</svg>
