<svg width="60" height="60" viewBox="0 0 60 60" fill="none" xmlns="http://www.w3.org/2000/svg">
<path d="M45.8203 0H14.1797C10.2964 0 7.14844 3.14801 7.14844 7.03125C7.14844 10.9145 10.2964 14.0625 14.1797 14.0625H15.0586C16.5125 14.0625 17.6953 12.8797 17.6953 11.4258C17.6953 9.97184 16.5125 8.78906 15.0586 8.78906C14.0878 8.78906 13.3008 8.00203 13.3008 7.03125C13.3008 6.06047 14.0878 5.27344 15.0586 5.27344C18.4511 5.27344 21.2109 8.03332 21.2109 11.4258C21.2109 12.3689 20.9971 13.2628 20.6161 14.0625H39.3839C39.0029 13.2628 38.7891 12.3689 38.7891 11.4258C38.7891 8.03332 41.5489 5.27344 44.9414 5.27344C45.9122 5.27344 46.6992 6.06047 46.6992 7.03125C46.6992 8.00203 45.9122 8.78906 44.9414 8.78906C43.4875 8.78906 42.3047 9.97184 42.3047 11.4258C42.3047 12.8797 43.4875 14.0625 44.9414 14.0625H45.8203C49.7036 14.0625 52.8516 10.9145 52.8516 7.03125C52.8516 3.14801 49.7036 0 45.8203 0Z" fill="#396B2B"/>
<path d="M14.1797 19.3359C14.1797 21.2776 15.7536 22.8516 17.6953 22.8516H42.3047C44.2464 22.8516 45.8203 21.2776 45.8203 19.3359V17.5781H14.1797V19.3359Z" fill="#396B2B"/>
<path d="M44.0625 56.4844H15.9375C14.9667 56.4844 14.1797 57.2714 14.1797 58.2422C14.1797 59.213 14.9667 60 15.9375 60H44.0625C45.0333 60 45.8203 59.213 45.8203 58.2422C45.8203 57.2714 45.0333 56.4844 44.0625 56.4844Z" fill="#396B2B"/>
<path d="M17.6953 26.3672V52.9688H42.3047V26.3672H17.6953ZM27.3633 48.5742C27.3633 49.545 26.5763 50.332 25.6055 50.332C24.6347 50.332 23.8477 49.545 23.8477 48.5742V30.7617C23.8477 29.7909 24.6347 29.0039 25.6055 29.0039C26.5763 29.0039 27.3633 29.7909 27.3633 30.7617V48.5742ZM36.1523 48.5742C36.1523 49.545 35.3653 50.332 34.3945 50.332C33.4237 50.332 32.6367 49.545 32.6367 48.5742V30.7617C32.6367 29.7909 33.4237 29.0039 34.3945 29.0039C35.3653 29.0039 36.1523 29.7909 36.1523 30.7617V48.5742Z" fill="#396B2B"/>
</svg>
