<svg width="60" height="60" viewBox="0 0 60 60" fill="none" xmlns="http://www.w3.org/2000/svg">
<g clip-path="url(#clip0)">
<path d="M27.8606 28.333C26.964 28.0196 26.5891 27.8274 26.5891 27.4516C26.5891 26.7818 27.2816 26.6044 27.6482 26.6044C28.3511 26.6044 28.4954 26.8896 28.4954 27.3177V27.3511C28.4954 27.6589 28.745 27.9087 29.0524 27.9087H29.196C29.5036 27.9087 29.7531 27.6595 29.7533 27.3516L29.7542 26.3848C29.7542 26.2286 29.6886 26.0794 29.5738 25.9738C29.2241 25.6531 28.7709 25.475 28.1942 25.4327V24.7985C28.1942 24.4907 27.9444 24.2412 27.6371 24.2412H27.5028C27.1954 24.2412 26.9456 24.4907 26.9456 24.7985V25.4768C26.1045 25.7091 25.3073 26.4764 25.3073 27.4963C25.3073 28.7127 26.3799 29.0799 27.3264 29.4037C28.3077 29.7399 28.7181 29.9582 28.7181 30.4392C28.7181 31.1344 27.9963 31.3199 27.5698 31.3199C27.1388 31.3199 26.6057 31.1969 26.4615 30.9943C26.3985 30.9041 26.356 30.7286 26.3353 30.4723C26.3116 30.1829 26.0701 29.9599 25.7799 29.9599H25.6667C25.5179 29.9599 25.3757 30.0192 25.2708 30.1251C25.1662 30.2305 25.108 30.3732 25.1094 30.5219L25.1181 31.6181C25.1199 31.8666 25.2858 32.083 25.5249 32.1501C25.5491 32.157 25.5812 32.1644 25.6138 32.1714L25.6402 32.177C26.1372 32.3158 26.5866 32.4359 26.9459 32.4814V33.4042C26.9459 33.7118 27.1957 33.9613 27.5031 33.9613H27.6374C27.9448 33.9613 28.1945 33.7118 28.1945 33.4042V32.4611C29.1208 32.2664 30.0003 31.4986 30.0003 30.4167C29.9999 29.0819 28.8137 28.6668 27.8606 28.333Z" fill="#396B2B"/>
<path d="M56.6469 10.3324V0C53.7234 1.28152 48.2235 3.11484 45.6639 3.26048C43.1042 3.40612 31.0759 1.51735 27.8172 2.33299C25.1946 2.98947 10.7943 13.8261 6.49895 16.8145C-0.358656 21.5854 5.71007 22.3501 8.58948 21.2465C11.4868 20.136 20.8243 14.9202 20.8243 14.9202C20.7948 15.9769 20.9545 17.4727 21.8996 19.0879C21.8996 19.0879 22.9685 20.5862 24.2493 22.0529C21.4855 23.3131 19.5593 26.1009 19.5593 29.3312C19.5593 32.0752 20.9492 34.5003 23.0618 35.9409H9.2421C8.4768 35.9409 7.85632 36.5613 7.85632 37.3266V58.6139C7.85632 59.3798 8.4768 60.0001 9.2421 60.0001H45.8674C46.6325 60.0001 47.253 59.3798 47.253 58.6139V37.3266C47.253 36.5613 46.6325 35.9409 45.8674 35.9409H32.0478C34.1601 34.5004 35.5501 32.0753 35.5501 29.3312C35.5501 27.3257 34.8062 25.4919 33.5821 24.0869C33.5675 24.0746 33.5545 24.0613 33.5422 24.0478C35.5395 23.0523 37.6389 21.2686 42.7218 19.1897C51.2826 15.6881 54.1822 11.7114 56.6469 10.3324ZM33.0616 18.4388C31.4572 19.5714 30.3623 20.6776 29.7236 21.6371C29.3635 21.5355 28.9933 21.4585 28.6149 21.4076C28.284 20.3367 27.7157 18.928 26.8497 17.0627C26.8497 17.0627 26.4522 16.1278 26.5833 15.0098C26.9101 13.7606 28.0383 12.4209 31.2261 12.0095C36.5938 11.3168 37.3555 14.0305 34.9298 16.8558C34.4122 17.3922 33.787 17.9268 33.0616 18.4388ZM33.8171 39.2432C34.5785 39.2432 35.1982 39.8625 35.1982 40.6242C35.1982 41.3855 34.5788 42.005 33.8171 42.005H21.2924C20.5309 42.005 19.9116 41.3855 19.9116 40.6242C19.9116 39.8627 20.5309 39.2432 21.2924 39.2432H33.8171ZM27.5547 35.2205C24.3072 35.2205 21.665 32.5787 21.665 29.331C21.665 26.0835 24.3072 23.4416 27.5547 23.4416C28.0339 23.4416 28.499 23.5004 28.9451 23.6089C28.9444 24.5423 29.6708 25.0748 30.8687 24.9565C31.0527 24.9384 31.2312 24.9129 31.4056 24.8805C32.6527 25.9615 33.444 27.5551 33.444 29.331C33.4442 32.5787 30.8022 35.2205 27.5547 35.2205Z" fill="#396B2B"/>
</g>
<defs>
<clipPath id="clip0">
<rect width="60" height="60" fill="white"/>
</clipPath>
</defs>
</svg>
