<svg width="536" height="940" viewBox="0 0 536 940" fill="none" xmlns="http://www.w3.org/2000/svg">
<path d="M173.099 349.867L241.691 698.156C245.268 716.321 255.52 732.493 270.427 743.486L536.016 939.34L535.65 99.1394L506.05 90.0623C483.698 83.2078 459.43 87.3018 440.582 101.107L201.961 275.884C178.797 292.849 167.548 321.685 173.099 349.867Z" fill="url(#paint0_linear)"/>
<mask id="mask0" mask-type="alpha" maskUnits="userSpaceOnUse" x="0" y="0" width="938" height="940">
<path d="M173.099 349.867L241.691 698.156C245.268 716.321 255.52 732.493 270.427 743.486L536.016 939.34L535.65 99.1394L506.05 90.0623C483.698 83.2078 459.43 87.3018 440.582 101.107L201.961 275.884C178.797 292.849 167.548 321.685 173.099 349.867Z" fill="url(#paint1_linear)"/>
</mask>
<g mask="url(#mask0)">
<path opacity="0.1" d="M-1591 755.253C-1591 755.253 -1363.38 967.515 -1130.16 808.552C-896.945 649.59 -813.92 727.2 -558.313 783.305C-302.707 839.409 -169.307 780.499 51.7834 596.29C272.874 412.081 535.943 522.419 535.943 522.419V931.2C535.943 937.828 530.57 943.2 523.943 943.2L-1579 943.2C-1585.63 943.2 -1591 937.828 -1591 931.2V755.253Z" fill="#396B2B"/>
<path opacity="0.1" d="M-1591 689.75C-1591 689.75 -1349.39 943.2 -1130.16 743.059C-910.938 542.918 -752.35 641.115 -558.313 717.807C-364.276 794.498 -200.092 688.814 34.0587 521.404C268.209 353.995 535.943 521.404 535.943 521.404V931.2C535.943 937.828 530.57 943.201 523.943 943.201L-1579 943.201C-1585.63 943.201 -1591 937.828 -1591 931.201L-1591 689.75Z" fill="#396B2B"/>
</g>
<defs>
<linearGradient id="paint0_linear" x1="292" y1="182.5" x2="975.868" y2="987.815" gradientUnits="userSpaceOnUse">
<stop stop-color="#62B74B"/>
<stop offset="1" stop-color="#A9DC99"/>
</linearGradient>
<linearGradient id="paint1_linear" x1="634.315" y1="189.355" x2="442.314" y2="1099.04" gradientUnits="userSpaceOnUse">
<stop stop-color="#62B74B"/>
<stop offset="1" stop-color="#A9DC99"/>
</linearGradient>
</defs>
</svg>
